<mxfile host="app.diagrams.net" modified="2021-06-08T05:52:48.754Z" agent="5.0 (Macintosh; Intel Mac OS X 10_15_7) AppleWebKit/537.36 (KHTML, like Gecko) Chrome/86.0.4240.193 Safari/537.36" etag="Fb461B-Cb89ZgO0yyKQv" version="14.7.6" type="github">
  <diagram id="88EShVH61Wdn497kkBpx" name="Page-1">
    <mxGraphModel dx="946" dy="539" grid="1" gridSize="10" guides="1" tooltips="1" connect="1" arrows="1" fold="1" page="1" pageScale="1" pageWidth="827" pageHeight="1169" math="0" shadow="0">
      <root>
        <mxCell id="0" />
        <mxCell id="1" parent="0" />
        <mxCell id="bY_2TPdyn6DBfMFVql2d-1" value="" style="rounded=1;whiteSpace=wrap;html=1;fillColor=#d5e8d4;strokeColor=#82b366;" vertex="1" parent="1">
          <mxGeometry x="130" y="90" width="540" height="200" as="geometry" />
        </mxCell>
        <mxCell id="bY_2TPdyn6DBfMFVql2d-8" style="edgeStyle=orthogonalEdgeStyle;rounded=0;orthogonalLoop=1;jettySize=auto;html=1;exitX=0.5;exitY=0;exitDx=0;exitDy=0;entryX=0.5;entryY=0;entryDx=0;entryDy=0;" edge="1" parent="1" source="bY_2TPdyn6DBfMFVql2d-4" target="bY_2TPdyn6DBfMFVql2d-6">
          <mxGeometry relative="1" as="geometry" />
        </mxCell>
        <mxCell id="bY_2TPdyn6DBfMFVql2d-4" value="描述数据" style="rounded=1;whiteSpace=wrap;html=1;fillColor=#dae8fc;strokeColor=#6c8ebf;" vertex="1" parent="1">
          <mxGeometry x="160" y="190" width="100" height="60" as="geometry" />
        </mxCell>
        <mxCell id="bY_2TPdyn6DBfMFVql2d-9" style="edgeStyle=orthogonalEdgeStyle;rounded=0;orthogonalLoop=1;jettySize=auto;html=1;exitX=0.5;exitY=0;exitDx=0;exitDy=0;entryX=0.5;entryY=0;entryDx=0;entryDy=0;" edge="1" parent="1" source="bY_2TPdyn6DBfMFVql2d-5" target="bY_2TPdyn6DBfMFVql2d-7">
          <mxGeometry relative="1" as="geometry">
            <Array as="points">
              <mxPoint x="330" y="150" />
              <mxPoint x="590" y="150" />
            </Array>
          </mxGeometry>
        </mxCell>
        <mxCell id="bY_2TPdyn6DBfMFVql2d-5" value="描述数据" style="rounded=1;whiteSpace=wrap;html=1;fillColor=#dae8fc;strokeColor=#6c8ebf;" vertex="1" parent="1">
          <mxGeometry x="280" y="190" width="100" height="60" as="geometry" />
        </mxCell>
        <mxCell id="bY_2TPdyn6DBfMFVql2d-6" value="缓存页" style="rounded=1;whiteSpace=wrap;html=1;fillColor=#ffe6cc;strokeColor=#d79b00;" vertex="1" parent="1">
          <mxGeometry x="414" y="190" width="100" height="60" as="geometry" />
        </mxCell>
        <mxCell id="bY_2TPdyn6DBfMFVql2d-7" value="缓存页" style="rounded=1;whiteSpace=wrap;html=1;fillColor=#ffe6cc;strokeColor=#d79b00;" vertex="1" parent="1">
          <mxGeometry x="540" y="190" width="100" height="60" as="geometry" />
        </mxCell>
        <mxCell id="bY_2TPdyn6DBfMFVql2d-11" value="Buffer Pool" style="text;html=1;strokeColor=none;fillColor=none;align=center;verticalAlign=middle;whiteSpace=wrap;rounded=0;" vertex="1" parent="1">
          <mxGeometry x="350" y="110" width="100" height="20" as="geometry" />
        </mxCell>
      </root>
    </mxGraphModel>
  </diagram>
</mxfile>
